<?xml version="1.0" standalone="no"?>
<!DOCTYPE svg PUBLIC "-//W3C//DTD SVG 20010904//EN"
 "http://www.w3.org/TR/2001/REC-SVG-20010904/DTD/svg10.dtd">
<svg version="1.0" xmlns="http://www.w3.org/2000/svg"
 width="3280.000000pt" height="3280.000000pt" viewBox="0 0 3280.000000 3280.000000"
 preserveAspectRatio="xMidYMid meet">
<metadata>
Created by potrace 1.14, written by Peter Selinger 2001-2017
</metadata>
<g transform="translate(0.000000,3280.000000) scale(0.100000,-0.100000)"
fill="#000000" stroke="none">
<path d="M4678 21355 c-1 -1 -48 -6 -103 -9 -97 -6 -158 -12 -221 -21 -17 -2
-57 -7 -89 -11 -32 -3 -68 -8 -79 -10 -25 -5 -70 -13 -111 -19 -16 -2 -41 -6
-55 -9 -14 -3 -37 -7 -52 -10 -15 -2 -31 -7 -35 -9 -5 -3 -30 -8 -57 -11 -27
-4 -54 -10 -58 -12 -5 -3 -24 -8 -41 -11 -18 -3 -39 -9 -48 -14 -9 -4 -19 -6
-22 -3 -3 3 -12 2 -19 -2 -7 -5 -22 -10 -33 -12 -23 -4 -35 -7 -55 -14 -8 -3
-51 -16 -95 -29 -44 -12 -86 -27 -92 -32 -7 -5 -13 -7 -13 -3 0 3 -16 0 -35
-8 -20 -9 -37 -15 -40 -16 -9 -1 -39 -12 -102 -36 -34 -13 -64 -24 -68 -24 -3
0 -26 -9 -51 -20 -55 -25 -96 -42 -109 -45 -5 -2 -64 -28 -130 -60 -66 -31
-129 -61 -140 -66 -11 -5 -60 -32 -110 -59 -49 -28 -101 -56 -115 -62 -14 -7
-27 -15 -30 -19 -3 -3 -21 -14 -40 -24 -19 -10 -49 -29 -66 -41 -17 -13 -34
-21 -37 -17 -4 3 -7 1 -7 -5 0 -7 -7 -12 -15 -12 -8 0 -15 -4 -15 -10 0 -5 -7
-10 -15 -10 -8 0 -15 -4 -15 -8 0 -5 -12 -15 -27 -23 -16 -8 -65 -41 -111 -74
-46 -33 -91 -65 -101 -70 -10 -6 -25 -17 -34 -25 -9 -8 -22 -19 -29 -25 -114
-88 -248 -200 -248 -207 0 -4 -4 -8 -9 -8 -24 0 -374 -349 -501 -499 -25 -30
-53 -63 -63 -75 -40 -46 -53 -63 -82 -101 -16 -22 -35 -47 -42 -55 -42 -50
-143 -193 -143 -201 0 -5 -5 -9 -12 -9 -6 0 -9 -3 -5 -6 5 -5 -2 -16 -38 -58
-5 -6 -16 -23 -24 -36 -8 -14 -45 -74 -82 -135 -36 -60 -87 -148 -113 -195
-75 -138 -186 -370 -186 -390 0 -5 -4 -10 -8 -10 -4 0 -8 -10 -9 -22 -1 -11
-7 -24 -13 -28 -7 -4 -12 -11 -12 -16 0 -5 -3 -16 -5 -24 -5 -15 -8 -24 -37
-95 -26 -66 -67 -179 -71 -195 -2 -8 -16 -53 -30 -100 -15 -47 -28 -92 -30
-100 -2 -8 -4 -15 -5 -15 -1 0 -3 -7 -5 -15 -12 -46 -27 -107 -30 -122 -2 -9
-8 -25 -14 -36 -6 -11 -8 -21 -6 -24 3 -3 -1 -26 -9 -53 -8 -26 -14 -51 -14
-54 1 -3 -3 -24 -7 -46 -13 -56 -12 -55 -15 -57 -1 -2 -3 -19 -5 -38 -2 -19
-10 -73 -19 -120 -17 -100 -25 -155 -32 -230 -3 -30 -7 -66 -9 -80 -27 -152
-26 -888 0 -1005 3 -11 7 -45 9 -75 5 -66 34 -267 43 -295 3 -11 7 -36 8 -55
1 -19 7 -53 13 -75 6 -22 13 -51 16 -65 3 -14 7 -34 10 -45 2 -11 10 -42 16
-70 17 -75 18 -77 29 -112 5 -18 7 -33 4 -33 -3 0 0 -6 6 -14 7 -8 13 -25 15
-38 1 -13 5 -30 8 -38 4 -8 22 -64 41 -125 20 -60 50 -148 67 -195 18 -47 35
-95 37 -107 3 -13 9 -23 13 -23 4 0 11 -12 15 -27 6 -26 22 -63 70 -168 13
-27 29 -65 36 -82 8 -18 17 -33 21 -33 5 0 8 -6 8 -14 0 -13 24 -61 95 -191
18 -33 41 -76 51 -95 11 -19 21 -37 24 -40 7 -7 70 -111 70 -115 0 -2 27 -43
60 -90 33 -47 60 -89 60 -93 0 -4 14 -21 30 -39 17 -18 30 -35 30 -39 0 -6 57
-84 102 -139 9 -11 43 -54 76 -95 33 -41 74 -91 91 -110 18 -19 57 -64 89 -99
98 -110 296 -304 424 -416 54 -47 68 -59 128 -105 25 -19 49 -40 55 -46 32
-34 388 -284 405 -284 5 0 10 -4 10 -10 0 -5 7 -10 15 -10 8 0 15 -4 15 -9 0
-5 8 -11 18 -14 9 -4 35 -18 57 -31 22 -14 49 -30 60 -36 11 -6 36 -20 55 -32
89 -54 447 -228 520 -253 11 -4 66 -26 85 -34 31 -14 244 -92 260 -95 6 -2 42
-13 80 -25 64 -21 199 -59 235 -66 8 -2 42 -10 75 -18 33 -9 71 -18 85 -21 14
-3 36 -7 50 -10 23 -5 108 -22 155 -31 11 -2 38 -6 59 -10 21 -3 48 -7 60 -10
12 -2 44 -7 71 -9 28 -3 66 -8 85 -10 152 -23 302 -30 585 -31 273 0 461 10
605 31 19 3 51 7 70 10 63 8 104 14 185 29 44 7 94 16 110 19 17 3 46 9 65 14
19 5 38 9 43 10 4 1 9 3 12 3 3 1 14 3 25 4 11 1 21 3 23 5 2 2 20 6 57 14 76
17 180 45 205 55 11 5 70 23 130 42 61 18 115 36 120 40 6 3 28 12 50 19 43
13 230 89 305 122 25 12 46 20 47 20 6 -4 358 181 361 189 2 5 9 9 15 9 42 0
572 360 673 458 7 6 16 12 20 12 3 0 14 8 23 18 9 9 32 30 51 46 172 140 452
425 620 631 36 44 67 82 70 85 3 3 18 23 34 45 16 22 36 47 43 55 62 68 257
371 369 572 41 74 186 368 188 383 1 5 7 19 13 30 38 69 212 563 227 645 1 8
8 35 15 60 7 25 14 52 16 60 2 8 8 35 15 60 20 73 16 85 -41 144 -47 48 -189
197 -319 336 -23 25 -97 103 -164 173 -135 144 -169 180 -343 363 -179 190
-210 223 -303 324 -47 50 -114 122 -150 160 -36 37 -114 121 -175 185 -60 65
-127 137 -148 159 -22 23 -85 90 -140 150 -56 60 -124 132 -152 161 -27 29
-99 106 -160 170 -60 65 -126 135 -145 155 -19 20 -87 92 -150 160 -63 68
-132 142 -153 164 -22 23 -89 95 -150 160 -62 66 -128 136 -147 156 -19 20
-82 87 -140 149 -58 62 -125 135 -150 161 -25 26 -97 102 -160 170 -63 68
-140 149 -170 181 -30 32 -76 81 -102 108 -26 28 -50 51 -53 51 -6 0 -40 -35
-517 -522 -147 -150 -379 -388 -517 -528 l-249 -255 48 -50 c142 -146 713
-735 778 -801 l22 -23 214 214 c117 118 217 215 221 215 5 0 543 -534 1196
-1187 898 -898 1185 -1191 1177 -1200 -6 -7 -7 -13 -3 -13 4 0 2 -7 -5 -15 -7
-8 -9 -15 -6 -15 4 0 1 -10 -6 -22 -7 -13 -12 -25 -13 -28 -1 -24 -182 -396
-224 -460 -25 -39 -38 -60 -73 -122 -18 -32 -36 -58 -40 -58 -5 0 -8 -6 -8
-12 0 -7 -9 -24 -20 -38 -11 -14 -46 -61 -77 -105 -32 -44 -61 -81 -65 -83 -4
-2 -8 -10 -8 -17 0 -7 -4 -15 -8 -17 -4 -2 -23 -23 -42 -47 -19 -25 -42 -52
-50 -61 -8 -9 -42 -47 -75 -85 -78 -89 -223 -234 -310 -310 -38 -33 -79 -71
-92 -84 -13 -13 -23 -21 -23 -17 0 3 -8 -2 -18 -11 -22 -22 -73 -63 -102 -83
-13 -8 -28 -20 -34 -25 -6 -6 -40 -31 -76 -55 -36 -25 -66 -48 -68 -52 -2 -5
-10 -8 -18 -8 -8 0 -14 -4 -14 -10 0 -5 -4 -10 -10 -10 -12 0 -123 -70 -131
-82 -3 -6 -10 -10 -15 -9 -5 0 -25 -9 -44 -21 -19 -11 -35 -19 -35 -18 0 1
-28 -14 -62 -34 -34 -20 -66 -36 -72 -36 -6 0 -11 -5 -11 -10 0 -6 -3 -9 -7
-8 -5 1 -37 -12 -73 -29 -123 -58 -175 -80 -275 -118 -55 -20 -104 -38 -110
-40 -5 -1 -17 -5 -25 -8 -69 -29 -403 -118 -490 -131 -8 -2 -28 -5 -45 -9 -40
-9 -113 -19 -150 -22 -16 -2 -37 -5 -45 -8 -14 -6 -53 -9 -240 -23 -131 -10
-420 -10 -420 0 0 5 -6 3 -13 -3 -8 -6 -17 -8 -20 -5 -3 3 -30 8 -59 10 -108
7 -194 14 -225 19 -18 3 -50 7 -70 10 -21 4 -63 11 -93 16 -30 6 -64 12 -75
14 -31 6 -176 37 -228 50 -11 2 -80 23 -155 46 -76 23 -143 42 -149 42 -7 0
-13 4 -13 8 0 3 -10 9 -22 12 -40 8 -123 42 -130 52 -4 6 -8 6 -8 2 0 -4 -10
-2 -22 5 -13 7 -25 13 -28 13 -12 1 -85 35 -220 102 -133 67 -184 94 -265 144
-16 11 -42 25 -58 32 -15 7 -24 16 -20 20 3 4 1 8 -5 8 -7 1 -16 2 -21 3 -5 0
-21 11 -35 24 -15 12 -29 22 -32 22 -3 0 -56 38 -118 84 -107 79 -127 95 -179
139 -12 11 -40 33 -61 50 -49 40 -318 306 -371 368 -22 26 -56 66 -74 89 -19
23 -40 48 -46 54 -6 6 -22 27 -35 46 -13 19 -27 37 -30 40 -16 15 -90 121 -90
130 0 5 -4 10 -8 10 -5 0 -17 17 -28 38 -10 20 -25 41 -32 45 -6 4 -12 15 -12
22 0 8 -4 15 -10 15 -5 0 -10 4 -10 9 0 5 -22 45 -48 88 -27 43 -65 112 -86
153 -20 41 -41 82 -46 90 -5 8 -25 51 -46 95 -20 44 -43 92 -51 107 -7 15 -13
29 -13 30 1 2 -4 17 -10 33 -65 167 -137 386 -156 470 -1 6 -6 28 -12 50 -6
22 -13 51 -16 65 -33 157 -46 227 -45 240 1 8 -1 22 -4 30 -4 8 -9 33 -11 55
-3 22 -5 40 -6 40 -2 0 -6 51 -16 175 -12 151 -13 504 -2 518 6 6 7 12 2 12
-5 0 -9 16 -9 35 0 19 2 35 5 35 3 0 5 15 6 33 1 45 12 161 19 189 2 13 7 41
9 63 2 22 7 51 10 65 3 14 8 39 10 55 7 40 34 168 50 237 31 124 123 408 160
492 13 30 22 57 18 60 -3 3 0 6 6 6 7 0 12 9 12 20 0 11 4 20 8 20 5 0 9 6 9
13 0 6 9 32 21 57 11 25 20 49 20 54 0 5 4 12 9 15 4 3 28 47 53 96 24 50 47
92 50 95 3 3 19 31 35 62 17 32 33 58 38 58 4 0 7 5 7 11 0 13 130 213 141
217 5 2 9 8 9 13 0 7 83 123 120 166 5 6 31 38 57 70 64 79 88 105 161 181 34
36 62 68 62 71 0 3 16 17 35 31 19 14 35 31 35 38 0 6 4 12 10 12 5 0 28 18
52 41 67 63 88 82 158 139 36 29 67 57 68 61 2 5 8 9 14 9 6 0 27 14 47 30 46
39 46 39 106 80 28 18 52 36 55 39 3 3 14 11 25 18 11 7 53 33 94 58 40 25 77
45 81 45 5 0 10 3 12 8 10 23 476 251 500 244 4 -1 8 3 8 9 0 5 5 7 10 4 6 -3
10 -1 10 5 0 6 4 9 8 6 4 -2 21 1 37 9 31 13 64 27 78 30 4 2 9 4 12 5 3 1 8
3 13 5 4 1 14 4 22 7 26 10 217 69 236 73 11 2 66 15 124 29 111 26 143 33
200 42 19 2 59 9 87 15 29 6 57 8 62 5 5 -4 12 -3 15 2 3 4 24 9 48 11 24 1
57 4 73 6 135 20 695 24 695 5 0 -3 19 -5 43 -6 57 0 157 -12 290 -34 72 -12
88 -15 130 -25 12 -3 33 -8 47 -10 105 -18 432 -117 545 -165 18 -7 52 -21 65
-25 9 -3 54 -23 113 -48 31 -15 61 -27 65 -28 30 -10 256 -133 348 -189 38
-24 79 -48 91 -54 13 -6 23 -14 23 -18 0 -5 6 -8 13 -8 8 0 22 -9 32 -20 10
-11 24 -20 31 -20 7 0 14 -4 16 -8 2 -5 25 -23 53 -42 54 -37 78 -56 107 -82
10 -10 21 -18 24 -18 6 0 89 -68 158 -130 51 -46 54 -49 104 -92 23 -21 40
-38 37 -38 -3 0 14 -17 37 -37 24 -21 50 -47 60 -59 9 -11 36 -40 60 -65 68
-69 203 -234 281 -344 40 -55 75 -101 79 -103 5 -2 8 -10 8 -18 0 -8 5 -14 10
-14 6 0 10 -5 10 -11 0 -5 18 -37 40 -69 22 -32 40 -61 40 -65 0 -3 12 -24 27
-48 14 -23 25 -43 22 -43 -2 -1 3 -10 12 -20 27 -31 196 -382 205 -424 1 -5 8
-23 36 -90 6 -14 12 -31 14 -38 1 -8 6 -21 10 -30 4 -9 8 -20 9 -24 2 -5 3 -9
5 -10 1 -2 3 -11 5 -21 2 -10 7 -26 11 -35 4 -9 8 -22 9 -27 3 -14 36 -127 43
-145 3 -8 6 -20 7 -26 2 -6 12 -49 23 -95 12 -46 24 -100 27 -119 4 -19 8 -42
10 -50 2 -8 4 -20 4 -26 1 -7 15 -27 32 -45 28 -31 190 -202 314 -334 28 -29
106 -112 175 -185 69 -74 145 -155 170 -181 43 -44 223 -236 305 -324 100
-107 158 -166 160 -163 3 3 12 88 22 208 9 108 9 536 0 660 -9 135 -17 219
-23 250 -2 14 -7 48 -10 75 -5 48 -29 196 -41 260 -3 17 -6 37 -8 45 -1 8 -6
33 -11 55 -9 45 -8 41 -17 75 -4 14 -9 36 -11 50 -3 14 -5 25 -6 25 -1 0 -3 7
-5 15 -12 53 -16 72 -34 135 -34 122 -73 250 -79 260 -4 6 -8 18 -9 27 -7 42
-148 390 -206 507 -12 25 -22 47 -22 50 -1 3 -6 15 -12 26 -6 11 -30 56 -53
100 -23 44 -46 84 -51 89 -5 6 -9 16 -9 23 0 8 -5 19 -10 26 -17 20 -80 129
-80 138 0 5 -4 9 -10 9 -5 0 -10 4 -10 9 0 5 -22 44 -50 85 -27 42 -50 80 -50
85 0 5 -4 11 -8 13 -5 2 -28 32 -52 67 -42 63 -63 90 -87 116 -7 8 -13 16 -13
20 0 6 -124 163 -166 211 -11 12 -35 41 -54 64 -46 55 -159 177 -241 259 -59
60 -115 113 -240 226 -57 52 -244 204 -289 235 -19 14 -44 32 -54 42 -11 10
-23 18 -27 18 -4 0 -14 6 -21 13 -7 7 -58 44 -113 80 -55 37 -105 72 -112 77
-7 6 -17 10 -23 10 -5 0 -10 4 -10 9 0 5 -11 12 -25 15 -14 4 -25 11 -25 16 0
6 -4 10 -9 10 -4 0 -57 28 -117 63 -60 34 -127 71 -149 82 -22 11 -42 23 -43
28 -2 4 -7 5 -12 2 -5 -3 -15 2 -24 10 -8 9 -18 16 -21 15 -3 0 -30 11 -61 25
-31 14 -60 25 -65 25 -5 0 -9 5 -9 10 0 6 -9 10 -20 10 -11 0 -20 5 -20 10 0
6 -3 9 -7 8 -7 -2 -160 57 -238 92 -24 11 -226 81 -240 84 -5 1 -16 5 -22 9
-7 5 -13 6 -13 2 0 -3 -9 -1 -21 5 -18 10 -34 15 -84 24 -5 1 -14 4 -20 8 -9
5 -89 27 -165 44 -35 8 -90 21 -120 28 -14 4 -36 8 -50 10 -14 2 -36 7 -50 10
-14 3 -36 8 -50 10 -14 3 -36 7 -49 10 -12 3 -42 8 -65 10 -22 3 -50 7 -61 10
-12 2 -48 7 -80 11 -33 4 -67 9 -76 10 -9 2 -52 6 -95 10 -43 4 -92 9 -109 11
-34 6 -641 14 -647 9z"/>
<path d="M25667 18224 c-1 -1 -45 -5 -97 -9 -95 -7 -145 -12 -145 -15 0 -2
-23 -7 -69 -15 -22 -4 -50 -11 -63 -16 -13 -5 -27 -8 -31 -7 -27 7 -387 -143
-412 -172 -3 -3 -34 -25 -70 -49 -74 -50 -180 -139 -225 -190 -16 -19 -37 -42
-46 -50 -9 -9 -39 -47 -68 -86 -28 -38 -58 -79 -66 -90 -8 -10 -15 -25 -15
-31 0 -7 -4 -14 -8 -16 -4 -1 -29 -46 -54 -98 -46 -95 -109 -284 -123 -370 -4
-25 -9 -54 -12 -65 -10 -51 -16 -162 -15 -285 1 -243 60 -440 185 -625 56 -82
187 -210 277 -271 81 -54 199 -114 224 -114 9 0 16 -4 16 -10 0 -5 10 -10 23
-10 13 0 27 -3 31 -7 4 -5 12 -9 17 -9 5 -1 10 -2 12 -4 2 -2 3 -2 90 -23 63
-16 66 -17 70 -18 1 0 18 -2 37 -4 19 -2 55 -6 80 -10 24 -3 75 -7 112 -8 37
-1 68 -6 68 -10 0 -5 5 -5 12 -1 6 4 50 8 97 10 47 1 111 5 141 9 30 4 69 9
85 11 17 2 41 6 55 9 81 17 102 22 110 25 3 1 8 2 12 1 5 0 126 42 234 83 18
6 39 17 47 25 9 7 22 14 29 15 26 4 213 121 253 159 11 10 33 28 48 40 33 26
123 117 163 167 16 19 37 43 46 54 9 10 22 31 28 47 7 16 16 27 19 24 4 -2 14
11 21 30 8 19 17 35 20 35 3 0 12 16 20 35 8 19 17 35 22 35 4 0 8 5 8 11 0 6
13 39 29 74 84 181 133 417 134 640 1 76 -11 224 -18 235 -3 4 -7 25 -11 46
-12 85 -77 243 -136 332 -15 24 -28 47 -28 52 0 4 -3 10 -8 12 -4 2 -21 21
-39 43 -39 51 -123 135 -134 135 -4 0 -12 6 -16 13 -4 7 -20 20 -34 29 -14 9
-33 23 -41 30 -32 29 -222 124 -240 120 -5 -1 -8 3 -8 8 0 6 -3 9 -7 8 -10 -2
-64 13 -78 21 -5 3 -14 6 -20 7 -5 1 -23 5 -40 9 -16 4 -43 9 -60 12 -16 2
-37 7 -45 10 -39 15 -382 38 -393 27z m160 -616 c26 -5 59 -11 72 -14 36 -7
131 -53 171 -83 65 -48 120 -114 160 -193 21 -43 38 -78 36 -78 -1 0 3 -28 10
-62 26 -121 3 -365 -43 -476 -8 -19 -12 -36 -9 -39 3 -3 -1 -12 -9 -20 -8 -8
-15 -23 -15 -32 0 -10 -7 -24 -15 -31 -8 -7 -15 -17 -15 -22 0 -17 -79 -126
-128 -176 -49 -51 -134 -122 -146 -122 -3 0 -24 -11 -46 -25 -22 -14 -40 -22
-40 -19 0 4 -7 0 -16 -7 -9 -7 -23 -14 -31 -15 -8 -1 -22 -6 -31 -10 -9 -4
-21 -8 -27 -9 -5 0 -26 -4 -45 -8 -79 -16 -99 -18 -180 -17 -109 1 -146 6
-244 34 -136 40 -269 162 -311 286 -1 3 -5 13 -9 22 -4 9 -9 25 -11 35 -2 10
-4 18 -5 18 -3 0 -11 43 -14 88 -3 27 -7 51 -10 54 -3 3 -1 14 5 24 5 11 6 19
2 19 -16 0 2 153 33 285 22 95 147 325 176 325 6 0 8 3 5 6 -17 17 152 153
241 195 104 49 114 52 202 65 19 3 36 6 37 8 8 7 206 3 250 -6z"/>
<path d="M13955 18170 c-3 -6 -34 -155 -51 -250 -9 -49 -11 -56 -29 -140 -9
-41 -18 -87 -20 -102 -2 -15 -6 -36 -10 -47 -3 -10 -7 -33 -10 -50 -2 -17 -6
-38 -9 -48 -3 -10 -7 -34 -10 -53 -3 -19 -8 -46 -11 -60 -3 -14 -8 -35 -11
-47 -2 -13 -6 -33 -9 -45 -2 -13 -7 -35 -10 -50 -12 -62 -14 -74 -20 -98 -13
-63 -30 -156 -28 -167 0 -7 -2 -13 -6 -13 -4 0 -7 -8 -7 -17 -1 -19 -5 -43
-23 -128 -6 -27 -12 -59 -15 -70 -2 -11 -7 -40 -12 -65 -4 -25 -8 -47 -9 -50
0 -3 -4 -21 -8 -40 -4 -19 -9 -46 -12 -60 -3 -14 -8 -36 -10 -50 -2 -14 -20
-101 -39 -195 -19 -93 -37 -181 -40 -195 -2 -14 -14 -71 -25 -128 -11 -56 -23
-117 -26 -135 -3 -17 -8 -39 -10 -47 -5 -18 -14 -64 -21 -105 -8 -52 -9 -60
-15 -70 -3 -5 -4 -16 -3 -22 1 -7 2 -17 3 -21 0 -4 438 -8 971 -8 864 0 971 2
975 16 4 15 54 258 60 295 2 11 15 74 29 139 14 66 23 122 21 125 -2 3 -276 6
-609 5 -605 0 -606 0 -606 20 0 12 4 37 9 56 6 19 12 49 15 65 5 31 13 72 21
115 3 14 8 36 10 50 3 14 7 36 10 50 4 14 8 36 11 50 2 14 11 59 19 100 8 41
16 86 19 100 2 14 7 36 10 50 4 14 9 39 11 55 2 17 5 30 6 30 1 0 3 9 5 20 1
11 6 34 10 50 3 17 6 38 6 47 0 10 4 20 9 23 5 4 7 10 4 14 -2 5 0 23 5 42 6
19 12 48 15 64 2 17 6 39 8 50 3 11 7 36 11 55 3 19 8 44 10 55 7 29 76 375
81 405 3 14 7 36 11 50 3 14 7 37 8 51 2 14 6 31 10 37 4 7 5 12 2 12 -2 0 0
15 5 33 9 29 18 80 23 133 1 11 5 24 8 30 3 5 8 26 12 47 6 31 4 37 -11 38
-102 3 -706 3 -708 -1z"/>
<path d="M16194 18163 c-2 -7 -7 -21 -10 -30 -3 -10 -8 -36 -10 -58 -3 -22 -9
-53 -14 -70 -5 -16 -11 -46 -14 -65 -9 -59 -16 -93 -26 -140 -6 -25 -13 -56
-15 -70 -3 -14 -7 -36 -10 -50 -3 -14 -8 -36 -10 -50 -3 -14 -8 -38 -11 -55
-4 -16 -7 -37 -8 -45 -2 -8 -5 -24 -9 -35 -3 -11 -8 -36 -11 -55 -3 -19 -15
-80 -26 -135 -11 -55 -23 -113 -26 -130 -3 -16 -9 -47 -13 -67 -5 -21 -7 -38
-4 -38 3 0 1 -6 -4 -12 -6 -7 -9 -23 -8 -35 1 -13 -1 -23 -5 -23 -3 0 -6 -8
-7 -18 -2 -29 -27 -159 -37 -197 -1 -5 -8 -45 -16 -87 -7 -43 -17 -78 -22 -78
-5 0 -6 -4 -3 -10 7 -11 -24 -170 -36 -186 -5 -6 -6 -13 -3 -16 3 -3 -2 -39
-10 -79 -8 -41 -17 -85 -20 -99 -3 -14 -12 -59 -20 -100 -8 -41 -17 -87 -20
-102 -3 -16 -8 -40 -12 -55 -3 -16 -11 -59 -19 -97 -8 -38 -12 -73 -9 -77 3
-5 0 -9 -5 -9 -6 0 -10 -3 -9 -7 1 -5 -4 -42 -12 -83 -8 -41 -14 -82 -14 -90
-1 -13 45 -15 358 -15 407 -1 365 -11 381 90 5 28 9 52 10 55 7 29 16 71 20
95 3 17 9 53 15 80 6 28 12 61 15 74 2 14 9 47 15 75 6 28 12 61 15 74 2 13 6
31 9 40 3 9 7 35 11 57 3 22 7 47 10 55 2 8 7 29 10 45 3 17 8 39 10 50 2 11
6 34 9 50 2 17 9 50 15 75 5 25 12 60 15 78 4 17 8 47 12 65 3 17 10 52 15 77
6 25 12 54 15 65 2 11 6 33 10 48 3 16 7 38 9 50 2 12 6 33 9 47 3 14 10 48
16 75 5 28 12 61 15 75 10 48 25 125 29 150 2 14 11 59 19 100 9 41 18 87 21
103 3 15 7 35 10 45 3 9 8 33 10 52 3 19 8 49 12 65 4 17 8 40 8 53 1 12 3 22
6 22 3 0 7 10 8 23 3 25 10 62 12 62 1 0 3 9 4 20 4 26 14 81 22 120 4 17 7
36 7 43 0 6 3 12 6 12 3 0 7 15 7 33 1 17 5 43 9 57 3 14 8 36 9 50 2 14 6 35
10 48 7 21 4 22 -41 23 -426 6 -676 3 -679 -8z"/>
<path d="M17434 18150 c-3 -14 -8 -32 -10 -40 -3 -8 -8 -33 -11 -55 -3 -22 -9
-47 -14 -56 -4 -9 -6 -18 -4 -20 2 -3 0 -22 -6 -44 -5 -22 -12 -56 -15 -75 -3
-19 -11 -38 -18 -42 -8 -6 -8 -8 1 -8 8 0 9 -9 3 -32 -5 -18 -11 -44 -14 -58
-2 -14 -14 -72 -26 -130 -12 -58 -24 -116 -26 -130 -3 -13 -12 -55 -20 -93 -8
-39 -12 -72 -9 -75 3 -3 1 -10 -4 -16 -8 -10 -15 -41 -25 -116 -2 -14 -5 -25
-6 -25 -2 0 -5 -17 -15 -70 -8 -50 -13 -70 -16 -70 -1 0 -2 -11 -3 -25 -1 -14
-4 -29 -7 -35 -4 -5 -5 -20 -4 -32 1 -13 -1 -23 -5 -23 -4 0 -7 -6 -7 -12 0
-18 -10 -73 -24 -136 -6 -30 -12 -61 -14 -70 -2 -9 -4 -17 -5 -17 -1 0 -3 -9
-4 -20 -5 -35 -18 -104 -31 -165 -3 -14 -7 -36 -10 -50 -3 -14 -7 -36 -10 -50
-3 -14 -7 -36 -10 -50 -3 -14 -9 -47 -15 -75 -5 -27 -12 -61 -14 -75 -3 -14
-7 -36 -10 -50 -8 -34 -35 -169 -41 -200 -3 -14 -9 -47 -15 -75 -5 -27 -12
-61 -14 -75 -3 -14 -5 -27 -6 -30 -3 -6 -3 -8 -14 -72 -5 -26 -8 -51 -7 -55 0
-5 163 -8 360 -8 l359 -1 7 31 c4 16 9 39 10 50 2 11 15 76 30 145 14 69 28
139 30 155 2 17 4 30 5 30 2 0 7 23 15 69 4 21 9 48 11 60 3 11 7 32 10 46 2
14 7 36 10 50 3 14 8 39 11 55 2 17 8 46 13 65 5 19 12 53 16 75 3 22 8 43 10
46 2 3 256 6 564 6 308 0 562 2 565 5 2 2 7 21 11 42 3 21 8 48 10 60 3 11 8
34 10 50 3 16 10 40 15 53 6 17 6 22 -2 17 -8 -4 -8 -1 -1 12 6 11 12 33 15
49 3 17 8 42 11 58 4 15 8 37 10 50 3 12 8 33 11 47 3 14 8 41 11 60 3 19 8
37 10 39 2 2 0 9 -5 15 -7 8 -170 11 -553 9 -298 0 -551 1 -560 4 -13 3 -16 9
-9 21 5 9 9 20 9 25 0 7 7 45 16 92 2 11 16 80 31 154 15 74 29 144 31 155 6
23 15 72 19 96 2 13 84 16 651 20 357 3 646 6 642 8 -3 1 -2 18 3 37 6 19 12
47 14 63 9 66 38 188 47 200 7 8 7 12 -1 12 -7 0 -10 4 -7 9 10 16 53 231 47
232 -3 0 -455 1 -1004 2 l-998 2 -5 -25z"/>
<path d="M19790 18160 c-4 -8 -11 -31 -14 -50 -3 -19 -12 -68 -20 -107 -9 -40
-18 -87 -21 -105 -3 -18 -8 -40 -10 -48 -2 -8 -7 -28 -10 -45 -2 -16 -7 -41
-10 -55 -12 -61 -19 -96 -20 -110 0 -9 -4 -21 -9 -28 -4 -6 -5 -12 -2 -12 2 0
-2 -28 -10 -62 -8 -35 -17 -74 -19 -88 -4 -24 -14 -79 -20 -110 -2 -8 -4 -15
-5 -15 -1 0 -3 -13 -6 -30 -4 -32 -12 -70 -14 -70 -1 0 -3 -13 -6 -30 -5 -37
-12 -70 -14 -70 -1 0 -3 -9 -4 -20 -2 -11 -6 -33 -9 -50 -4 -16 -9 -46 -12
-65 -3 -19 -8 -42 -10 -50 -2 -8 -7 -28 -10 -45 -2 -16 -7 -41 -10 -55 -3 -14
-8 -38 -11 -54 -2 -16 -7 -32 -9 -35 -2 -4 -6 -27 -10 -51 -3 -25 -17 -97 -30
-160 -14 -63 -27 -128 -30 -145 -2 -16 -7 -41 -10 -55 -9 -39 -17 -83 -19
-106 -1 -11 -6 -25 -10 -32 -4 -6 -8 -29 -10 -49 -2 -21 -6 -45 -9 -53 -3 -8
-10 -42 -16 -75 -6 -33 -13 -70 -16 -82 -11 -50 -15 -69 -17 -95 -1 -16 -6
-28 -11 -28 -4 0 -6 -4 -3 -9 4 -5 0 -38 -8 -73 -8 -34 -17 -81 -21 -103 l-5
-41 1027 1 1027 0 8 35 c8 39 15 72 23 110 3 14 7 35 10 48 12 52 14 61 19 93
9 55 15 79 20 87 5 9 19 95 20 125 0 9 3 17 7 17 4 0 7 11 7 24 l0 23 -647 1
c-355 0 -656 1 -669 1 -22 1 -23 4 -17 48 3 26 8 49 10 52 1 3 6 22 9 41 3 19
8 46 11 60 3 14 7 36 10 50 3 14 7 36 10 50 3 14 10 50 16 80 6 30 11 62 13
70 3 13 75 15 571 17 312 1 570 4 572 7 5 5 30 115 38 166 3 14 7 36 10 50 3
14 8 36 10 50 2 14 9 50 15 80 6 30 13 65 16 78 7 38 13 66 18 89 2 12 -1 23
-7 25 -7 2 -263 4 -569 3 l-557 0 1 22 c2 13 5 23 8 23 3 0 5 12 6 28 0 15 3
43 7 62 7 38 26 134 33 165 6 30 13 66 20 103 l6 32 648 0 648 0 7 38 c4 20 9
46 11 57 1 11 5 31 8 45 8 34 25 120 31 148 2 12 6 30 9 40 3 9 8 35 11 57 11
63 14 77 25 124 6 24 8 46 6 49 -3 2 -453 5 -1002 6 -876 1 -997 -1 -1004 -14z"/>
<path d="M22009 18158 c-2 -19 -5 -36 -9 -40 -1 -2 -3 -12 -5 -23 -1 -11 -5
-31 -8 -45 -11 -55 -57 -287 -62 -310 -3 -14 -7 -36 -10 -50 -3 -14 -7 -34 -9
-45 -2 -11 -6 -27 -8 -35 -3 -13 44 -15 372 -17 206 0 383 -1 394 -2 16 -1 17
-6 11 -38 -4 -21 -9 -47 -10 -58 -2 -11 -17 -87 -34 -170 -18 -82 -34 -163
-37 -180 -2 -16 -7 -37 -9 -45 -2 -8 -7 -28 -9 -45 -5 -25 -14 -72 -50 -245
-7 -30 -20 -105 -21 -120 -1 -8 -4 -22 -8 -30 -3 -8 -8 -31 -11 -50 -6 -37
-12 -69 -22 -110 -5 -23 -8 -43 -19 -107 -2 -13 -6 -27 -9 -32 -3 -5 -8 -26
-10 -47 -4 -35 -26 -150 -41 -211 -14 -62 -29 -154 -27 -165 1 -5 -1 -8 -5 -8
-5 0 -9 -10 -10 -22 -2 -36 -11 -85 -33 -185 -11 -51 -20 -101 -20 -111 0 -17
19 -18 360 -18 198 0 360 3 361 6 0 3 2 12 4 20 2 8 7 31 11 50 9 52 12 65 14
65 1 0 3 9 4 20 2 17 17 99 21 115 2 9 19 95 21 105 1 6 3 12 4 15 2 7 6 26
19 95 15 80 20 105 26 135 3 14 7 35 10 48 2 13 6 31 9 40 3 9 8 37 11 62 4
24 8 47 10 50 2 3 6 26 10 50 3 25 10 59 15 75 5 17 11 46 14 66 3 20 8 42 10
50 3 8 7 30 10 49 3 19 12 69 21 110 9 41 18 84 20 95 2 11 5 29 8 40 7 31 19
104 17 107 -1 2 4 16 10 32 10 26 16 59 25 126 2 14 4 25 5 25 2 0 8 27 14 65
3 14 7 36 10 50 3 13 8 41 11 61 3 20 10 51 15 70 6 19 10 46 10 62 0 18 7 30
19 35 11 4 187 7 391 6 424 -1 390 -9 406 91 4 28 9 55 10 60 2 6 5 24 9 40 3
17 8 41 11 55 9 40 14 63 20 99 3 18 8 43 10 55 7 30 13 62 19 94 2 15 7 39
11 55 5 25 3 27 -28 28 -18 0 -536 1 -1150 2 -1058 2 -1118 1 -1119 -15z"/>
<path d="M27630 18160 c-7 -13 -13 -42 -36 -160 -3 -14 -20 -101 -39 -193 -19
-93 -37 -181 -40 -195 -3 -15 -7 -38 -10 -52 -3 -14 -8 -38 -10 -55 -3 -16 -8
-37 -10 -45 -2 -8 -6 -28 -9 -44 -7 -39 -28 -141 -41 -198 -3 -13 -7 -38 -10
-57 -2 -18 -7 -41 -9 -50 -3 -9 -7 -28 -10 -44 -3 -15 -7 -35 -10 -45 -4 -15
-13 -61 -21 -117 -2 -11 -4 -20 -5 -20 -1 0 -3 -11 -5 -25 -2 -14 -6 -36 -10
-50 -3 -14 -7 -34 -9 -45 -7 -43 -19 -111 -23 -130 -7 -28 -10 -298 -4 -310 3
-5 7 -19 8 -30 9 -59 25 -125 33 -130 5 -3 7 -12 3 -20 -3 -8 0 -15 7 -15 6 0
9 -4 6 -9 -7 -11 66 -152 107 -206 44 -57 144 -151 204 -191 65 -44 188 -104
212 -104 10 0 21 -3 25 -7 4 -5 12 -9 17 -9 5 -1 10 -2 12 -4 1 -1 9 -3 17 -5
8 -2 43 -10 77 -18 34 -8 64 -13 67 -10 2 3 10 1 18 -3 17 -11 110 -17 258
-18 159 0 270 10 371 34 26 6 53 13 60 14 8 2 27 8 42 14 15 7 31 11 35 10 4
-1 16 2 27 7 64 26 86 34 90 35 14 3 185 99 195 110 3 3 27 23 55 45 65 52
195 186 195 201 0 3 16 26 36 52 71 93 190 367 225 521 6 25 12 53 14 61 20
84 43 215 40 219 -3 2 -1 9 4 15 5 6 11 27 14 46 5 33 20 107 32 160 5 23 12
59 20 115 2 11 4 20 5 20 1 0 3 9 6 20 4 18 6 34 18 100 2 11 4 20 6 20 1 0 3
11 4 25 2 22 14 84 22 115 1 6 5 26 8 45 4 19 9 42 11 50 2 8 6 33 10 55 3 22
11 58 17 80 6 22 12 54 14 70 3 29 6 44 18 95 3 14 8 37 10 53 3 15 7 35 10
45 3 9 7 33 10 52 4 19 10 53 15 75 6 22 8 41 6 43 -7 7 -703 4 -715 -3 -5 -3
-8 -10 -5 -14 2 -5 0 -23 -5 -41 -8 -29 -19 -83 -25 -130 -1 -8 -5 -28 -8 -45
-4 -16 -10 -40 -12 -52 -3 -13 -7 -33 -10 -45 -2 -12 -7 -40 -11 -63 -7 -47
-12 -70 -14 -70 -1 0 -3 -9 -5 -20 -2 -11 -6 -33 -10 -50 -4 -16 -8 -39 -10
-50 -2 -11 -6 -30 -8 -41 -3 -12 -8 -38 -11 -58 -3 -21 -20 -103 -36 -184 -17
-81 -32 -156 -34 -167 -53 -288 -100 -494 -133 -584 -14 -36 -27 -76 -30 -88
-3 -13 -10 -23 -15 -23 -5 0 -6 -4 -3 -10 3 -5 1 -10 -4 -10 -6 0 -11 -6 -11
-14 0 -8 -7 -22 -16 -30 -8 -9 -13 -16 -9 -16 7 0 -7 -17 -61 -74 -37 -39
-121 -97 -149 -103 -5 -1 -31 -9 -56 -17 -51 -16 -255 -21 -293 -7 -11 5 -39
14 -60 21 -51 16 -126 62 -126 76 0 7 -6 14 -14 17 -20 8 -62 102 -75 167 -11
58 -4 305 9 305 1 0 3 11 6 25 2 14 8 48 14 75 5 28 12 61 14 75 3 14 21 106
41 205 20 99 39 191 41 205 2 14 7 36 10 50 7 31 13 58 19 90 2 14 9 50 15 80
6 30 13 65 16 78 8 41 13 67 19 92 3 14 7 37 10 53 17 95 23 122 25 122 2 0
13 68 14 93 0 12 4 22 7 22 3 0 6 6 6 13 0 6 5 39 12 71 6 33 11 64 11 70 0 8
-111 11 -356 11 -307 0 -357 -2 -364 -15z"/>
<path d="M30568 18172 c-34 -3 -37 -5 -43 -45 -9 -49 -9 -50 -30 -147 -9 -41
-18 -84 -20 -95 -3 -23 -10 -60 -25 -130 -6 -27 -12 -61 -15 -75 -3 -14 -6
-32 -8 -40 -2 -8 -8 -37 -12 -65 -10 -56 -12 -64 -14 -67 -1 -2 -4 -16 -7 -33
-5 -36 -12 -70 -14 -70 -1 0 -3 -11 -5 -25 -2 -14 -15 -83 -30 -155 -15 -71
-29 -141 -31 -155 -2 -14 -7 -36 -10 -50 -3 -14 -8 -36 -10 -50 -2 -14 -7 -36
-10 -50 -3 -14 -8 -38 -11 -55 -7 -41 -11 -60 -13 -60 -1 0 -3 -9 -4 -20 -9
-59 -17 -105 -26 -134 -5 -17 -9 -34 -9 -36 0 -6 -12 -73 -18 -100 -2 -11 -6
-31 -9 -45 -5 -28 -12 -64 -19 -100 -10 -46 -37 -185 -41 -210 -3 -14 -7 -32
-9 -40 -2 -8 -7 -30 -10 -48 -3 -18 -12 -65 -21 -105 -8 -39 -17 -88 -20 -107
-3 -19 -7 -43 -10 -52 -6 -19 -13 -53 -19 -88 -2 -14 -7 -38 -10 -55 -15 -78
-53 -70 348 -70 197 -1 360 2 362 5 2 4 6 17 9 31 3 13 8 35 11 49 3 14 8 42
10 63 2 21 7 41 9 46 3 4 8 27 11 51 3 23 7 46 10 50 3 4 7 25 10 46 4 22 8
46 11 55 2 9 7 32 9 50 3 19 7 45 11 59 3 14 7 32 8 40 20 113 30 141 47 137
11 -3 19 -1 19 4 0 6 7 6 18 0 22 -11 25 -12 62 -1 16 5 30 6 30 2 0 -4 16 -7
35 -7 19 0 35 3 35 6 0 4 15 3 33 0 17 -4 49 -4 69 0 21 3 35 2 32 -2 -3 -5 1
-9 8 -9 8 0 30 -30 51 -67 121 -221 169 -308 200 -363 11 -19 36 -64 55 -100
20 -36 47 -83 61 -106 l26 -40 372 0 c204 1 375 4 379 9 4 4 2 7 -5 7 -7 0 -9
5 -6 10 3 6 3 10 -2 10 -4 0 -13 10 -19 23 -31 63 -59 113 -68 119 -6 4 -7 8
-3 8 5 0 0 12 -11 28 -10 15 -33 52 -49 82 -17 30 -70 125 -118 210 -157 277
-150 262 -131 272 8 5 17 8 18 8 2 0 36 15 76 35 40 19 74 35 77 35 8 0 130
84 133 92 2 4 8 8 14 8 17 0 159 150 204 216 22 32 54 88 71 124 29 61 74 192
72 208 -1 4 0 9 1 12 23 59 30 370 10 420 -1 3 -3 10 -4 15 -5 28 -29 104 -42
132 -8 17 -14 36 -14 41 0 6 -3 12 -7 14 -5 2 -17 21 -28 42 -24 47 -153 181
-210 218 -62 40 -125 73 -180 93 -27 10 -55 22 -61 27 -6 4 -14 5 -17 1 -4 -3
-13 0 -22 7 -8 7 -15 10 -15 7 0 -3 -28 2 -62 10 -35 8 -76 16 -93 18 -16 1
-30 4 -30 5 0 9 -1191 21 -1297 12z m742 -577 c25 0 48 5 52 10 5 7 8 7 8 0 0
-6 46 -10 118 -9 112 0 190 -8 236 -25 11 -5 24 -8 27 -7 4 0 16 -8 28 -18 12
-11 21 -16 21 -13 0 3 12 -5 26 -18 15 -14 31 -25 35 -25 5 0 9 -7 9 -15 0 -8
3 -15 8 -15 4 0 16 -19 27 -42 16 -34 20 -63 19 -143 -1 -118 -4 -137 -42
-213 -27 -54 -109 -131 -173 -162 -32 -15 -59 -26 -59 -24 0 3 -8 0 -17 -5
-10 -5 -36 -12 -58 -16 -38 -7 -564 -15 -576 -9 -3 2 5 52 18 111 13 59 25
122 28 138 5 36 14 84 20 105 2 8 7 31 10 50 3 19 11 53 16 75 6 22 12 54 14
70 2 17 7 40 10 53 9 37 23 103 29 132 2 11 16 15 49 15 26 0 47 4 47 8 0 5 6
5 13 0 6 -4 32 -7 57 -8z"/>
<path d="M4019 17110 c-255 -253 -745 -738 -1087 -1078 -627 -620 -638 -631
-658 -654 -7 -7 -109 -109 -228 -226 -119 -117 -216 -216 -216 -220 0 -4 173
-7 385 -7 251 0 385 -3 385 -10 0 -6 3 -6 8 1 9 14 224 13 234 -1 5 -7 8 -7 8
1 0 14 230 13 230 -1 0 -6 3 -6 8 1 9 14 224 13 234 -1 5 -7 8 -7 8 0 0 7 56
11 156 11 102 -1 157 3 162 10 8 12 239 258 370 392 45 47 82 87 82 89 0 1 36
39 80 84 44 44 80 82 80 83 0 2 55 61 123 131 l123 127 63 -59 c35 -32 82 -76
105 -98 23 -22 89 -83 146 -135 57 -52 120 -111 140 -130 20 -19 74 -69 119
-110 45 -41 111 -102 146 -135 34 -33 87 -82 116 -108 30 -27 80 -73 112 -104
31 -30 57 -51 57 -46 0 5 47 9 105 9 63 -1 105 -5 105 -11 0 -6 3 -6 8 1 9 14
224 13 234 -1 5 -7 8 -7 8 1 0 14 230 13 230 -1 0 -6 3 -6 8 1 9 14 224 13
234 -1 5 -7 8 -7 8 1 0 14 230 13 230 -1 0 -6 3 -6 8 1 9 14 224 13 234 -1 5
-7 8 -6 8 1 0 7 40 10 118 9 119 -1 153 2 133 14 -9 6 -212 205 -1114 1094
-133 130 -245 237 -250 237 -4 0 -5 5 -2 10 3 6 2 10 -2 10 -5 0 -115 105
-245 233 -830 817 -978 962 -988 965 -5 2 -10 8 -10 13 0 12 -62 68 -76 69 -6
0 -219 -207 -475 -460z"/>
<path d="M13825 14063 c-93 -20 -100 -22 -103 -33 -2 -6 -8 -8 -12 -5 -32 20
-239 -193 -213 -219 4 -3 1 -6 -5 -6 -7 0 -12 -11 -12 -24 0 -14 -4 -27 -8
-30 -25 -15 -17 -251 10 -283 6 -7 8 -13 4 -13 -12 0 48 -99 83 -137 70 -74
137 -113 237 -136 61 -14 177 -16 229 -3 49 12 139 49 153 63 7 7 17 13 21 13
20 0 103 99 132 158 18 37 34 72 35 77 34 183 12 298 -81 419 -35 46 -139 126
-164 126 -9 0 -23 6 -29 13 -7 6 -16 12 -20 13 -4 0 -27 4 -52 8 -79 13 -143
13 -205 -1z m227 -94 c62 -22 118 -60 160 -108 34 -39 81 -137 73 -152 -4 -5
-2 -9 3 -9 13 0 6 -159 -10 -208 -45 -139 -192 -243 -343 -243 -163 0 -284 71
-349 203 -22 44 -41 135 -38 173 1 6 3 31 5 57 9 98 88 213 181 260 98 50 225
61 318 27z"/>
<path d="M18670 13848 c-19 -4 -46 -10 -60 -13 -14 -2 -48 -13 -77 -23 -43
-15 -50 -21 -42 -35 6 -9 7 -17 4 -17 -3 0 -1 -9 5 -20 10 -19 11 -19 55 0 25
11 46 19 48 19 1 -1 18 2 37 5 60 11 130 13 136 4 3 -4 9 -6 14 -3 14 9 86
-32 104 -57 33 -46 13 -106 -42 -133 -31 -15 -95 -23 -203 -25 -12 0 -16 -9
-15 -32 l1 -33 87 0 c47 0 90 -3 94 -7 4 -5 18 -8 31 -8 13 0 23 -4 23 -10 0
-5 6 -10 13 -10 8 0 22 -16 33 -35 17 -32 17 -38 4 -76 -12 -34 -24 -47 -64
-67 -86 -45 -243 -36 -334 20 -18 11 -34 19 -35 17 -18 -27 -28 -59 -23 -68
24 -39 175 -80 276 -75 56 2 105 9 105 14 0 1 8 3 18 5 32 6 105 55 125 83 32
44 41 93 27 137 -13 35 -61 96 -74 92 -3 -1 -16 4 -27 11 -12 6 -23 10 -25 9
-2 -1 3 3 11 10 8 7 20 17 27 23 7 5 15 10 18 10 14 0 41 38 50 73 2 4 3 8 5
10 6 8 8 42 2 51 -3 6 -8 20 -9 30 -3 18 -29 46 -84 91 -13 10 -26 18 -29 17
-3 -2 -14 0 -25 3 -11 4 -42 9 -70 11 -27 3 -57 6 -65 7 -8 2 -31 0 -50 -5z"/>
<path d="M14599 13846 c-4 -3 -3 -910 2 -917 3 -5 23 -8 45 -7 l39 3 2 170 c1
94 2 175 2 181 1 5 24 -12 52 -38 28 -26 55 -45 60 -42 5 3 9 1 9 -4 0 -5 6
-9 13 -10 6 -1 30 -5 52 -10 115 -24 232 11 309 92 34 37 73 104 83 146 10 42
8 150 -3 188 -7 23 -12 44 -12 45 -2 18 -27 61 -51 88 -17 18 -31 37 -31 42 0
4 -4 5 -10 2 -5 -3 -10 -2 -10 3 0 5 -26 22 -57 38 -51 25 -68 28 -148 28
-106 0 -159 -20 -222 -83 l-40 -41 1 55 c1 31 -1 59 -4 63 -4 5 -73 12 -81 8z
m376 -80 c19 2 35 -1 35 -6 0 -6 7 -10 15 -10 23 0 94 -50 100 -71 4 -11 10
-19 15 -19 14 0 41 -82 44 -135 13 -218 -206 -352 -390 -238 -67 42 -105 119
-105 213 -1 72 5 106 21 124 5 7 8 15 5 18 -3 2 13 22 34 44 42 45 101 77 143
79 15 1 31 5 35 9 4 4 9 3 11 -2 1 -4 18 -7 37 -6z"/>
<path d="M15470 13508 l0 -338 45 0 c29 0 45 4 46 13 0 6 2 24 4 40 2 15 0 25
-5 22 -5 -3 -5 7 -1 22 8 32 7 65 -3 81 -3 6 -3 13 1 15 10 6 9 89 -1 105 -4
7 -4 12 1 12 4 0 8 14 8 30 1 17 -3 30 -7 30 -4 0 -4 10 0 23 5 12 7 61 6 110
-1 48 1 88 5 88 3 1 89 2 190 3 l185 1 2 30 c1 17 -1 35 -5 40 -4 7 -91 10
-239 10 l-232 0 0 -337z"/>
<path d="M16170 13830 c-25 -8 -48 -19 -51 -24 -4 -5 -11 -6 -17 -2 -5 3 -13
-1 -16 -10 -4 -9 -9 -14 -12 -11 -4 3 -13 -1 -22 -9 -14 -15 -14 -19 3 -50
l18 -33 26 18 c30 20 62 35 74 33 4 -1 7 2 7 6 0 8 4 9 95 18 73 6 130 -10
167 -47 29 -30 51 -95 46 -137 l-3 -27 -160 -5 c-177 -6 -208 -15 -262 -70
-92 -94 -39 -263 93 -300 103 -29 229 -11 284 40 58 54 57 54 54 0 l-3 -50 45
0 c37 0 45 3 41 15 -4 8 -2 17 3 20 6 4 7 14 2 23 -9 19 -8 69 1 78 3 3 2 17
-3 30 -6 15 -6 24 0 24 5 0 6 10 2 23 -9 25 -8 74 1 83 3 3 2 17 -3 30 -6 14
-6 26 1 29 5 4 7 10 4 15 -3 6 -7 39 -9 76 -6 117 -67 194 -176 222 -59 15
-173 11 -230 -8z m308 -349 c17 -1 11 -133 -6 -139 -7 -2 -12 -9 -12 -14 0
-20 -63 -68 -104 -80 -47 -13 -106 -18 -106 -9 0 4 -12 6 -27 5 -32 -1 -78 24
-100 56 -20 28 -19 95 2 126 14 22 49 42 82 48 7 1 14 4 17 7 3 3 200 3 254 0z"/>
<path d="M16829 13840 c-1 -3 -1 -8 0 -12 0 -5 -4 -8 -9 -8 -7 0 -7 -6 -1 -19
6 -10 8 -21 5 -24 -7 -7 -7 -207 -1 -214 3 -2 2 -17 -3 -33 -5 -18 -4 -32 3
-39 8 -8 8 -11 0 -11 -8 0 -9 -9 -3 -29 4 -16 5 -32 2 -36 -3 -3 -5 -25 -3
-48 6 -87 6 -107 -2 -107 -4 0 -3 -9 3 -19 6 -12 6 -22 1 -25 -13 -9 -2 -42
15 -44 40 -4 65 -4 70 0 2 3 6 70 7 149 l2 144 209 0 210 0 0 -148 -1 -148 46
3 46 3 0 328 c0 181 -2 331 -5 335 -3 4 -23 7 -46 7 l-41 0 1 -148 c1 -91 -3
-147 -9 -148 -34 -4 -392 -4 -403 -1 -9 3 -12 34 -11 116 1 198 5 181 -41 181
-22 1 -41 -2 -41 -5z"/>
<path d="M17685 13830 c-9 -10 -12 -21 -7 -24 5 -3 6 -23 2 -46 -4 -22 -3 -43
1 -46 5 -3 4 -14 -1 -25 -6 -10 -7 -19 -3 -19 7 0 9 -125 3 -155 -1 -5 -1 -12
0 -15 6 -15 4 -120 -2 -120 -4 0 -5 -7 -1 -16 3 -9 7 -55 7 -103 l1 -86 37 -3
c37 -3 78 23 78 49 0 5 5 7 10 4 6 -3 10 0 10 7 0 7 17 31 38 54 20 23 51 59
69 80 73 90 179 217 260 313 l23 26 0 -267 0 -268 44 0 c40 0 44 2 47 28 2 15
2 167 -1 337 l-5 310 -38 0 c-32 0 -42 -6 -70 -40 -34 -43 -81 -97 -109 -127
-10 -10 -18 -22 -18 -27 0 -5 -3 -11 -7 -13 -5 -1 -23 -21 -41 -43 -39 -48
-81 -97 -123 -145 -17 -19 -45 -54 -62 -77 -18 -23 -37 -44 -43 -47 -8 -3 -11
66 -11 250 0 139 -2 257 -6 260 -14 15 -67 11 -82 -6z"/>
<path d="M19343 13835 c-24 -7 -43 -10 -43 -6 0 3 -4 1 -8 -4 -4 -6 -28 -20
-54 -33 -27 -13 -48 -29 -48 -35 0 -7 11 -25 24 -42 21 -26 25 -28 31 -12 4 9
13 17 21 17 8 0 14 5 14 11 0 5 4 7 10 4 5 -3 20 1 33 10 13 8 27 12 30 8 4
-3 7 -2 7 3 0 6 32 9 78 8 96 -3 112 -5 112 -16 0 -4 5 -7 11 -5 21 4 72 -70
73 -107 0 -20 5 -36 11 -36 5 0 4 -5 -2 -11 -6 -6 -9 -18 -6 -25 4 -11 -21
-14 -136 -15 -78 -1 -144 -2 -148 -3 -5 -1 -24 -6 -43 -10 -91 -22 -140 -86
-140 -183 1 -69 38 -127 105 -161 41 -20 65 -24 150 -23 95 1 147 21 199 78
l22 24 -1 -38 c-2 -56 3 -63 47 -63 l39 0 -4 248 c-4 242 -6 274 -20 288 -4 4
-7 13 -7 20 0 34 -125 126 -144 106 -3 -3 -6 -1 -6 4 0 15 -159 14 -207 -1z
m293 -358 c9 -9 11 -67 2 -67 -4 0 -5 -10 -3 -22 8 -40 -47 -107 -110 -134
-32 -13 -124 -21 -155 -12 -75 19 -110 59 -110 125 0 51 33 90 89 106 45 13
275 16 287 4z"/>
<path d="M19988 13842 c-15 -3 -17 -32 -16 -338 l0 -335 304 3 c264 3 304 1
305 -12 1 -8 3 -40 4 -70 1 -30 3 -63 4 -72 1 -14 10 -18 41 -18 l40 0 0 124
0 125 -52 3 -53 3 0 88 c0 48 -3 87 -8 87 -4 0 -5 6 -1 12 5 7 8 97 8 201 1
216 4 209 -84 198 -6 -1 -10 -107 -10 -296 l0 -295 -204 0 -204 0 1 290 c0
160 -3 293 -7 297 -8 8 -42 11 -68 5z"/>
<path d="M20852 13841 c-4 -3 -8 -154 -8 -336 l1 -330 37 -3 c41 -3 52 5 116
85 19 23 43 52 54 65 11 13 36 43 56 67 21 25 49 58 63 75 14 17 37 44 50 60
13 16 34 40 47 54 12 14 39 47 59 73 20 27 39 47 41 44 2 -2 4 -121 4 -264 l0
-261 43 0 c26 0 44 5 47 13 3 10 2 613 -1 653 -2 18 -81 8 -96 -13 -7 -10 -23
-30 -36 -44 -13 -14 -40 -45 -59 -69 -19 -24 -47 -56 -62 -72 -15 -15 -25 -28
-23 -28 3 0 -3 -8 -12 -18 -10 -11 -27 -30 -38 -43 -52 -63 -120 -145 -130
-155 -5 -7 -21 -26 -34 -42 -14 -17 -28 -29 -31 -27 -3 2 -6 117 -5 255 0 138
-2 254 -5 258 -6 9 -66 11 -78 3z"/>
<path d="M21874 13841 c-3 -3 -11 -6 -19 -8 -57 -12 -90 -29 -127 -67 -74 -76
-77 -210 -6 -297 7 -8 33 -26 58 -39 58 -32 56 -30 44 -38 -5 -4 -32 -40 -59
-80 -27 -39 -56 -80 -66 -90 -22 -25 -36 -68 -18 -56 8 4 29 7 47 5 24 -2 38
3 52 21 11 13 19 29 20 36 0 6 3 12 8 12 4 0 29 34 56 75 27 41 54 75 60 76
40 4 219 3 224 -1 4 -3 7 -52 7 -110 l0 -105 41 -3 42 -3 -2 43 c-1 24 1 55 5
71 4 15 5 27 1 27 -9 0 -7 83 2 98 4 7 3 12 -1 12 -5 0 -7 17 -5 38 1 20 3 42
2 47 0 6 -1 35 -3 65 -1 30 1 61 6 68 5 6 6 12 1 12 -5 0 -9 44 -9 97 l0 98
-178 0 c-98 0 -181 -2 -183 -4z m116 -86 c0 -6 3 -7 8 0 7 10 151 15 153 5 1
-3 2 -71 2 -151 l2 -147 -55 2 c-30 1 -63 -2 -72 -7 -10 -4 -18 -4 -18 0 0 4
-31 8 -68 9 -125 1 -176 44 -175 150 0 52 4 65 27 92 23 25 55 42 88 46 3 1 9
3 11 6 10 10 97 6 97 -5z"/>
<path d="M22834 13841 c-2 -2 -4 -154 -4 -338 l0 -333 40 0 c27 0 43 5 46 15
3 8 7 142 7 297 l2 282 201 0 c217 1 230 -2 214 -51 -1 -5 -1 -12 0 -18 1 -5
2 -126 3 -268 l0 -258 45 3 45 3 0 328 c0 180 -4 331 -7 335 -8 7 -585 10
-592 3z"/>
<path d="M23886 13839 c-16 -4 -33 -6 -38 -3 -4 3 -8 0 -8 -5 0 -6 -3 -10 -8
-8 -14 4 -107 -63 -136 -98 -15 -20 -37 -62 -48 -92 -22 -65 -28 -187 -9 -220
6 -13 9 -23 5 -23 -3 0 -2 -6 4 -12 6 -7 10 -17 10 -21 -2 -36 134 -166 174
-167 9 0 20 -5 23 -11 4 -6 13 -8 20 -5 7 2 18 -1 24 -7 8 -8 11 -8 11 2 0 9
4 10 13 4 20 -16 134 -6 175 16 11 6 22 7 26 4 3 -3 6 -1 6 5 0 7 6 12 13 12
37 0 137 131 153 202 10 42 11 152 2 183 -6 17 -10 36 -11 43 0 6 -4 12 -9 12
-5 0 -7 4 -3 9 3 5 -2 16 -10 24 -8 9 -15 19 -15 24 -1 20 -97 99 -130 107 -3
1 -15 7 -27 14 -13 7 -23 10 -23 6 0 -3 -6 -2 -12 3 -16 12 -133 13 -172 2z
m180 -89 c94 -41 146 -128 147 -244 1 -87 -20 -138 -78 -197 -83 -85 -248 -83
-343 4 -77 71 -97 233 -42 333 30 53 58 75 139 114 30 13 135 8 177 -10z"/>
<path d="M24392 13842 c-9 -3 -9 -6 1 -16 6 -7 21 -25 32 -40 11 -15 32 -42
47 -59 15 -18 28 -36 28 -40 0 -4 11 -18 25 -31 14 -13 25 -28 25 -35 0 -6 5
-11 10 -11 6 0 10 -6 10 -13 0 -7 9 -18 20 -25 11 -7 20 -19 20 -26 0 -8 6
-16 12 -18 13 -5 -9 -46 -39 -76 -7 -8 -27 -34 -45 -59 -17 -25 -39 -54 -50
-65 -10 -10 -18 -21 -18 -25 0 -5 -13 -21 -28 -38 -15 -16 -38 -45 -51 -62
l-22 -33 48 0 c42 0 52 4 73 30 14 17 37 45 52 63 15 17 28 35 28 39 0 4 6 13
13 20 7 7 26 31 42 53 62 83 54 83 115 2 30 -40 63 -81 72 -91 10 -11 18 -23
18 -27 0 -4 14 -21 30 -39 17 -18 30 -36 30 -41 0 -5 25 -9 56 -9 l55 0 -48
61 c-26 34 -52 68 -58 77 -5 8 -17 23 -25 32 -8 9 -24 30 -35 45 -11 16 -24
33 -30 39 -5 7 -24 30 -41 52 l-32 40 45 59 c25 33 49 62 54 63 5 2 9 8 9 14
0 5 6 16 14 24 25 25 115 149 116 159 0 5 -18 10 -40 10 -45 1 -41 4 -139
-125 -36 -47 -75 -97 -87 -112 l-21 -26 -74 99 c-114 153 -122 160 -166 163
-21 1 -44 1 -51 -2z"/>
<path d="M25338 13845 c-2 -2 -16 -5 -33 -8 -77 -13 -176 -98 -215 -183 -23
-51 -32 -173 -19 -240 11 -49 46 -110 89 -153 40 -39 120 -85 149 -84 9 0 21
-3 26 -7 15 -10 151 -3 185 10 3 1 8 2 13 1 4 0 7 4 7 11 0 6 3 8 6 5 7 -7 50
21 97 62 77 69 118 215 92 331 -17 80 -95 189 -145 205 -11 4 -20 11 -20 16 0
5 -6 9 -14 9 -8 0 -27 5 -43 12 -24 10 -167 21 -175 13z m151 -91 c14 -8 32
-14 39 -14 7 0 15 -7 18 -15 4 -8 11 -15 18 -15 15 0 57 -63 73 -108 6 -19 11
-67 10 -106 -5 -176 -135 -276 -314 -242 -23 4 -47 14 -54 22 -6 8 -15 14 -20
14 -14 0 -49 33 -49 47 0 7 -4 13 -9 13 -19 0 -48 101 -45 158 3 94 19 136 69
186 54 54 97 72 172 73 37 0 77 -5 92 -13z"/>
<path d="M25997 13838 c-6 -3 -12 -41 -13 -85 -2 -82 -12 -237 -19 -288 -18
-154 -49 -208 -121 -217 l-29 -3 0 -108 c0 -59 2 -111 5 -116 3 -5 22 -10 43
-13 l37 -4 0 83 0 83 302 -2 303 -3 -2 -77 -3 -78 44 0 44 0 -1 120 -1 119
-50 3 -51 3 0 293 c0 187 -4 292 -10 293 -44 5 -469 3 -478 -3z m389 -80 c4
-4 7 -119 7 -255 l0 -248 -207 -3 -208 -2 20 27 c39 56 51 127 67 388 3 49 9
92 14 95 13 8 299 6 307 -2z"/>
<path d="M26978 13845 c-2 -2 -18 -6 -35 -10 -42 -7 -99 -40 -146 -84 -70 -65
-110 -191 -94 -296 20 -145 125 -257 264 -283 126 -22 250 15 325 97 47 51 96
161 82 183 -4 6 -2 13 5 17 7 5 8 17 2 39 -6 21 -6 32 0 32 6 0 7 6 3 12 -5 7
-9 19 -10 28 -5 29 -10 45 -24 70 -7 14 -13 26 -12 28 4 5 -32 55 -59 81 -31
31 -78 59 -122 73 -32 10 -171 20 -179 13z m159 -96 c103 -44 148 -119 147
-244 0 -93 -18 -140 -76 -196 -36 -35 -98 -60 -157 -64 -43 -3 -125 20 -157
44 -33 24 -85 100 -93 134 -12 53 -4 173 13 205 63 122 201 173 323 121z"/>
<path d="M27589 13842 c-12 -2 -14 -49 -13 -330 1 -180 2 -331 3 -335 2 -12
376 -7 413 5 85 28 123 61 139 121 18 67 3 126 -42 169 -22 21 -49 38 -59 38
-28 0 -25 13 8 27 92 42 102 205 14 260 -15 10 -30 21 -33 26 -3 5 -10 8 -15
7 -5 -1 -31 2 -59 6 -48 7 -326 12 -356 6z m359 -83 c44 -15 55 -25 69 -65 22
-63 -14 -124 -85 -141 -30 -7 -182 -10 -253 -4 -15 1 -17 15 -14 109 1 59 3
109 4 112 2 11 243 1 279 -11z m48 -308 c42 -24 45 -29 47 -98 2 -51 -27 -86
-82 -100 -20 -6 -95 -9 -166 -9 l-130 1 -1 116 -1 115 146 -1 c133 -1 150 -3
187 -24z"/>
<path d="M28691 13840 c-5 -4 -7 -604 -2 -658 1 -11 39 -13 199 -9 216 4 237
7 287 40 97 63 95 233 -3 282 -20 10 -41 18 -45 17 -5 -2 -6 2 -2 8 3 5 11 10
17 10 14 0 71 67 76 88 11 48 3 113 -18 142 -22 31 -81 67 -122 74 -13 3 -23
5 -23 6 0 5 -358 4 -364 0z m358 -76 c9 -4 20 -8 24 -8 15 -2 57 -48 58 -65 0
-9 2 -23 4 -32 5 -28 -26 -79 -59 -96 -23 -12 -63 -17 -158 -18 -71 -1 -132 1
-136 4 -5 3 -9 54 -9 113 l0 107 26 3 c47 5 233 -1 250 -8z m26 -297 c39 -8
54 -19 70 -52 16 -34 18 -105 3 -105 -4 0 -8 -6 -8 -13 0 -7 -16 -21 -36 -32
-31 -17 -57 -20 -183 -20 l-146 0 -1 110 c-1 61 0 112 2 115 3 6 267 3 299 -3z"/>
<path d="M29798 13830 c-2 -8 -4 -159 -3 -335 l0 -320 45 -3 46 -3 -1 283 c0
156 2 290 6 298 6 13 37 15 193 15 l187 -1 -3 40 -3 41 -232 0 c-198 0 -232
-2 -235 -15z"/>
<path d="M30539 13834 c-13 -7 -30 -13 -37 -14 -38 -1 -131 -92 -163 -158 -28
-61 -31 -74 -31 -164 0 -65 5 -87 31 -142 61 -127 177 -196 321 -191 199 8
335 160 325 365 -6 129 -76 235 -190 287 -50 23 -75 28 -146 29 -55 0 -96 -4
-110 -12z m194 -80 c44 -15 139 -94 135 -113 -1 -3 4 -19 11 -35 12 -30 22
-152 12 -161 -3 -3 -6 -12 -7 -19 -4 -26 -34 -81 -59 -109 -94 -101 -281 -93
-368 15 -18 22 -32 43 -32 47 0 3 -4 11 -8 18 -8 13 -18 77 -19 129 -1 17 7
54 18 83 45 126 184 189 317 145z"/>
<path d="M31192 13841 c-6 -4 -10 -184 -10 -463 l0 -457 44 1 c33 0 44 4 45
17 0 9 0 92 0 185 l0 170 27 -30 c41 -46 84 -72 143 -88 102 -26 226 -2 294
56 11 9 31 26 44 37 13 12 20 21 16 21 -4 0 -1 8 8 18 35 39 52 105 52 202 0
82 -4 103 -26 150 -27 56 -93 132 -119 138 -8 2 -16 8 -18 13 -2 5 -11 9 -21
9 -9 0 -25 6 -36 13 -14 10 -47 13 -105 12 -96 -3 -115 -6 -132 -23 -7 -7 -19
-12 -27 -12 -8 0 -34 -20 -58 -46 l-43 -45 0 60 c0 34 -3 61 -7 62 -38 5 -63
5 -71 0z m437 -96 c53 -27 91 -66 116 -120 19 -41 23 -63 20 -125 -3 -90 -21
-133 -74 -186 -109 -106 -291 -86 -377 41 -61 89 -52 244 18 329 25 30 77 63
128 80 30 10 137 -2 169 -19z"/>
<path d="M32056 13841 c-1 -3 -2 -154 -1 -336 l0 -330 65 -2 c36 -1 68 -2 73
-3 22 -5 65 -3 75 4 7 4 12 3 12 -3 0 -6 6 -8 14 -5 8 3 38 7 68 8 146 7 228
79 233 206 3 85 -23 142 -83 182 -45 30 -102 41 -232 44 -69 2 -127 3 -130 4
-3 0 -5 53 -5 117 l0 117 -43 1 c-24 1 -44 -1 -46 -4z m380 -329 c44 -22 62
-52 67 -112 4 -38 -13 -92 -37 -116 -21 -20 -84 -46 -110 -43 -11 0 -25 0 -31
-1 -5 -1 -28 -1 -50 -1 -22 1 -59 1 -82 1 -35 -1 -43 3 -44 17 -4 52 -4 269
-1 276 3 5 59 7 126 4 97 -3 129 -8 162 -25z"/>
<path d="M32714 13839 c-3 -6 -7 -497 -4 -651 0 -15 9 -18 45 -18 l45 0 -2
337 -3 337 -38 1 c-21 1 -40 -2 -43 -6z"/>
</g>
</svg>
